<svg xmlns="http://www.w3.org/2000/svg" width="12" height="12" viewBox="0 0 12 12">
    <path fill="#767676" fill-rule="nonzero" d="M5.417 9.5h1.166V8.333H5.417V9.5zM6 .167A5.835 5.835 0 0 0 .167 6 5.835 5.835 0 0 0 6 11.833 5.835 5.835 0 0 0 11.833 6 5.835 5.835 0 0 0 6 .167zm0 10.5A4.673 4.673 0 0 1 1.333 6 4.673 4.673 0 0 1 6 1.333 4.673 4.673 0 0 1 10.667 6 4.673 4.673 0 0 1 6 10.667zM6 2.5a2.333 2.333 0 0 0-2.333 2.333h1.166A1.17 1.17 0 0 1 6 3.667a1.17 1.17 0 0 1 1.167 1.166c0 1.167-1.75 1.021-1.75 2.917h1.166c0-1.313 1.75-1.458 1.75-2.917A2.333 2.333 0 0 0 6 2.5z"/>
</svg>
